<svg version="1.2" xmlns="http://www.w3.org/2000/svg" viewBox="0 0 1920 590" width="300" height="92">
	<title>Logo Papelera-ai</title>
	<style>
		.s0 { fill: #ffffff } 
		.s1 { fill: #000001 } 
	</style>
	<g id="Capa 1">
		<g id="&lt;Group&gt;">
			<g id="&lt;Group&gt;">
				<path id="&lt;Compound Path&gt;" fill-rule="evenodd" class="s0" d="m106.7 570.1l-4.6-11.2h-21l-4.6 11.2h-11.1l21.3-50.2h10.1l21.4 50.2zm-15.1-37.1l-6.6 16.2h13.2zm63.8 37l-10.7-15.9h-8.6v15.9h-11v-49.8h22.8q8.9 0 13.8 4.3 5 4.4 5 12.1v0.2q0 6-3 9.8-2.9 3.8-7.7 5.6l12.2 17.8zm0.2-32.8q0-3.6-2.3-5.3-2.3-1.8-6.3-1.8h-10.9v14.3h11.1q4 0 6.2-1.9 2.2-2 2.2-5.2zm42.8-6.9v39.8h-10.9v-39.8h-15.2v-10.1h41.3v10.1zm23.3 39.8v-49.9h11v49.9zm1-53.8l8-12.6 9.3 4.1-9.1 8.5zm61.5 49.4q-2 1.7-4.5 2.8-2.4 1.2-5.4 1.8-2.9 0.6-6.5 0.6-5.5 0-10.2-2-4.7-2-8.1-5.4-3.4-3.5-5.3-8.2-2-4.7-2-10v-0.2q0-5.3 2-10 1.9-4.6 5.3-8.1 3.4-3.6 8.2-5.6 4.7-2 10.5-2 3.5 0 6.4 0.6 2.9 0.5 5.2 1.5 2.4 1 4.4 2.4 1.9 1.5 3.7 3.2l-7 8q-2.9-2.6-6-4.1-3-1.5-6.8-1.5-3.1 0-5.8 1.2-2.6 1.2-4.5 3.3-2 2.2-3 5-1.1 2.8-1.1 6v0.1q0 3.3 1.1 6.1 1 2.8 2.9 5 1.9 2.1 4.6 3.4 2.6 1.2 5.8 1.2 4.3 0 7.3-1.6 2.9-1.5 5.8-4.2l7 7q-1.9 2.1-4 3.7zm53.2-7.5q-1.6 4.2-4.4 7.1-2.9 2.8-6.9 4.2-4.1 1.3-9.1 1.3-10 0-15.8-5.5-5.7-5.6-5.7-16.6v-28.5h10.9v28.2q0 6.1 2.9 9.2 2.8 3.1 7.9 3.1 5 0 7.9-3 2.8-2.9 2.8-8.9v-28.6h11v28.2q0 5.6-1.5 9.8zm11.9 11.9v-49.9h11v40h24.8v9.9zm92.1-15q-2 4.7-5.5 8.2-3.5 3.6-8.4 5.6-4.8 2-10.6 2-5.8 0-10.6-2-4.9-2-8.4-5.5-3.5-3.4-5.5-8.1-1.9-4.7-1.9-10v-0.2q0-5.3 2-10 2-4.6 5.5-8.1 3.5-3.6 8.4-5.6 4.9-2 10.6-2 5.8 0 10.6 2 4.9 2 8.4 5.5 3.5 3.4 5.5 8.1 1.9 4.7 1.9 10v0.1q0 5.4-2 10zm-9.4-10q0-3.2-1.1-6-1.1-2.9-3.2-5-2-2.1-4.8-3.4-2.7-1.2-6-1.2-3.4 0-6.1 1.2-2.7 1.2-4.7 3.3-2 2.2-3.1 5-1.1 2.8-1.1 6v0.1q0 3.3 1.1 6.1 1.1 2.8 3.2 5 2 2.1 4.7 3.4 2.8 1.2 6.1 1.2 3.3 0 6.1-1.2 2.8-1.2 4.7-3.3 2-2.2 3.1-5 1.1-2.8 1.1-6zm55.1 16.8q-1.3 2.8-3.7 4.8-2.4 2-5.7 3-3.4 1-7.4 1-5.7 0-11.2-1.9-5.5-2-10-6.1l6.5-7.7q3.4 2.8 7 4.4 3.6 1.6 7.9 1.6 3.4 0 5.3-1.2 1.9-1.3 1.9-3.5v-0.1q0-1.1-0.4-1.9-0.4-0.8-1.5-1.5-1.1-0.7-3.1-1.4-2-0.8-5.1-1.5-3.8-1-6.8-2.1-3.1-1.1-5.3-2.8-2.1-1.7-3.3-4.2-1.2-2.5-1.2-6.2v-0.1q0-3.4 1.3-6.2 1.3-2.7 3.6-4.7 2.3-2 5.5-3.1 3.2-1 7-1 5.5 0 10.1 1.6 4.6 1.6 8.4 4.7l-5.7 8.3q-3.3-2.3-6.5-3.6-3.2-1.3-6.4-1.4-3.2 0.1-4.8 1.3-1.6 1.2-1.6 3.1v0.1q0 1.2 0.4 2.1 0.5 0.9 1.7 1.6 1.2 0.7 3.3 1.4 2.1 0.6 5.3 1.5 3.8 1 6.8 2.2 2.9 1.3 5 3 2 1.8 3 4.1 1.1 2.4 1.1 5.6v0.2q0 3.7-1.4 6.6zm68.7-16.7q-1.6 3.2-4.3 5.4-2.7 2.3-6.4 3.4-3.7 1.1-7.9 1.1h-8.3v14.9h-11v-49.8h20.4q4.5 0 8 1.2 3.5 1.3 6 3.6 2.4 2.2 3.8 5.4 1.3 3.2 1.3 7v0.1q0 4.4-1.6 7.7zm-9.5-7.6q0-3.7-2.4-5.6-2.4-1.9-6.5-1.9h-8.5v15.2h8.7q4.1 0 6.4-2.2 2.3-2.1 2.3-5.3zm55.6 32.3l-4.6-11.1h-21.1l-4.5 11.1h-11.2l21.4-50.1h10.1l21.3 50.1zm-15.1-37l-6.6 16.2h13.2zm63.8 37l-10.7-15.9h-8.6v15.9h-10.9v-49.8h22.7q8.9 0 13.9 4.3 4.9 4.4 4.9 12.1v0.2q0 6-2.9 9.8-3 3.8-7.7 5.6l12.1 17.8zm0.2-32.8q0-3.6-2.2-5.3-2.3-1.8-6.4-1.8h-10.9v14.3h11.1q4.1 0 6.3-1.9 2.1-2 2.1-5.2zm57.4 32.8l-4.6-11.1h-21l-4.6 11.1h-11.2l21.4-50.1h10.1l21.4 50.1zm-15.1-37l-6.7 16.2h13.3zm54.1 37v-49.8h37.6v9.7h-26.7v10.1h23.4v9.8h-23.4v10.4h27v9.8zm86 0v-32.5l-14 21.3h-0.3l-13.9-21.1v32.3h-10.8v-49.8h11.8l13.1 21 13.1-21h11.8v49.8zm63-7.7q-1.3 2.6-3.7 4.3-2.5 1.7-5.9 2.5-3.5 0.9-7.7 0.9h-23.6v-49.8h23q7.7 0 12.1 3.5 4.4 3.5 4.4 9.4v0.1q0 2.1-0.6 3.8-0.5 1.6-1.4 2.9-0.9 1.3-2 2.3-1.2 1-2.5 1.8 4.3 1.6 6.8 4.4 2.4 2.8 2.4 7.8v0.1q0 3.4-1.3 6zm-12.3-27.4q0-2.5-1.8-3.8-1.9-1.3-5.3-1.3h-10.9v10.5h10.1q3.7 0 5.8-1.2 2.1-1.3 2.1-4zm2.8 19.9q0-2.5-1.9-4-1.9-1.4-6.2-1.4h-12.7v10.9h13.1q3.6 0 5.6-1.3 2.1-1.3 2.1-4.1zm56.3 15.2l-4.5-11.2h-21.1l-4.6 11.2h-11.1l21.3-50.2h10.1l21.4 50.2zm-15.1-37l-6.6 16.1h13.2zm33.5 37v-49.8h11v39.9h24.8v9.9zm80.4 0l-4.5-11.1h-21.1l-4.5 11.1h-11.2l21.3-50.1h10.1l21.4 50.1zm-15.1-37l-6.6 16.2h13.2zm61.2 27.7q-1.2 3.3-3.6 5.6-2.3 2.2-5.5 3.3-3.3 1.1-7.2 1.1-5.9 0-9.8-2.2-4-2.2-6.5-5.3l6.9-7.6q2.1 2.3 4.3 3.6 2.2 1.3 4.8 1.3 3.1 0 4.9-1.9 1.8-2 1.8-6.3v-32.1h11.2v32.6q0 4.5-1.3 7.9zm11.8 9.3v-49.8h37.5v9.7h-26.7v10.1h23.5v9.8h-23.5v10.4h27v9.8zm81.7-8.2q-1.4 2.9-3.8 4.9-2.4 1.9-5.7 3-3.3 1-7.4 1-5.7 0-11.2-1.9-5.4-2-9.9-6.1l6.4-7.7q3.5 2.8 7.1 4.4 3.6 1.6 7.8 1.6 3.4 0 5.3-1.2 1.9-1.3 1.9-3.5v-0.1q0-1.1-0.4-1.9-0.4-0.8-1.5-1.5-1.1-0.7-3-1.5-2-0.7-5.1-1.4-3.8-1-6.9-2.1-3.1-1.1-5.2-2.8-2.1-1.7-3.3-4.2-1.2-2.5-1.2-6.2v-0.1q0-3.4 1.3-6.2 1.2-2.7 3.5-4.7 2.3-2 5.5-3.1 3.2-1 7.1-1 5.4 0 10 1.6 4.6 1.6 8.5 4.7l-5.7 8.3q-3.4-2.3-6.6-3.6-3.2-1.4-6.4-1.4-3.2 0-4.8 1.3-1.6 1.2-1.6 3.1v0.1q0 1.2 0.5 2.1 0.4 0.9 1.7 1.6 1.2 0.7 3.3 1.4 2.1 0.6 5.3 1.5 3.8 1 6.7 2.2 3 1.3 5 3 2.1 1.8 3.1 4.1 1 2.4 1 5.6v0.2q0 3.7-1.3 6.5zm55.8-11.7v19.9h-11v-19.6l-19.1-30.2h12.8l11.9 20 12.1-20h12.4zm89.9 4.7q-1.9 4.6-5.4 7.9-3.6 3.4-8.4 5.3-4.9 1.9-10.7 1.9h-19.5v-49.8h19.5q5.8 0 10.7 1.9 4.8 1.9 8.4 5.2 3.5 3.4 5.4 7.9 1.9 4.5 1.9 9.8v0.1q0 5.3-1.9 9.8zm-9.5-9.8q0-3.3-1.1-6-1.1-2.8-3.1-4.8-2-2-4.7-3.1-2.8-1.1-6.1-1.1h-8.5v30h8.5q3.3 0 6.1-1 2.7-1.1 4.7-3.1 2-2 3.1-4.7 1.1-2.7 1.1-6zm20.5 24.9v-49.8h37.5v9.7h-26.7v10.1h23.5v9.8h-23.5v10.4h27v9.8zm81.7-8.2q-1.4 2.9-3.8 4.9-2.4 1.9-5.7 3-3.3 1-7.4 1-5.7 0-11.2-2-5.5-1.9-9.9-6l6.4-7.7q3.5 2.7 7 4.4 3.6 1.6 7.9 1.6 3.4 0 5.3-1.2 1.9-1.3 1.9-3.5v-0.1q0-1.1-0.4-1.9-0.4-0.8-1.5-1.5-1.1-0.8-3.1-1.5-1.9-0.7-5.1-1.5-3.7-0.9-6.8-2-3.1-1.2-5.2-2.8-2.2-1.7-3.3-4.2-1.2-2.5-1.2-6.2v-0.1q0-3.5 1.3-6.2 1.2-2.7 3.5-4.7 2.3-2 5.5-3.1 3.2-1.1 7-1.1 5.5 0 10.1 1.7 4.6 1.6 8.5 4.7l-5.7 8.2q-3.4-2.2-6.6-3.6-3.2-1.3-6.4-1.3-3.2 0-4.8 1.3-1.6 1.2-1.6 3.1v0.1q0 1.2 0.5 2.1 0.4 0.9 1.6 1.6 1.3 0.7 3.4 1.4 2.1 0.6 5.3 1.5 3.8 1 6.7 2.2 3 1.2 5 3 2 1.7 3.1 4.1 1 2.3 1 5.6v0.1q0 3.7-1.3 6.6zm49.9 3.8q-2 1.7-4.5 2.8-2.4 1.2-5.4 1.8-2.9 0.6-6.5 0.6-5.5 0-10.2-2-4.7-2-8.1-5.4-3.4-3.5-5.3-8.2-2-4.7-2-10v-0.1q0-5.4 2-10 1.9-4.7 5.3-8.2 3.4-3.5 8.2-5.6 4.7-2 10.5-2 3.5 0 6.4 0.6 2.9 0.5 5.2 1.5 2.4 1 4.4 2.5 1.9 1.4 3.7 3.1l-7 8q-2.9-2.6-6-4.1-3-1.5-6.8-1.5-3.1 0-5.8 1.2-2.6 1.2-4.5 3.4-2 2.1-3 4.9-1.1 2.8-1.1 6v0.2q0 3.2 1.1 6 1 2.9 2.9 5 1.9 2.1 4.6 3.4 2.6 1.2 5.8 1.2 4.3 0 7.3-1.5 2.9-1.6 5.8-4.3l7 7q-1.9 2.1-4 3.7zm49.1 4.4l-4.5-11.2h-21.1l-4.5 11.2h-11.2l21.3-50.2h10.1l21.4 50.2zm-15.1-37l-6.6 16.1h13.2zm63.8 37l-10.7-15.9h-8.6v15.9h-11v-49.8h22.8q8.9 0 13.9 4.4 4.9 4.3 4.9 12.1v0.1q0 6-2.9 9.9-3 3.8-7.8 5.5l12.2 17.8zm0.2-32.8q0-3.5-2.3-5.3-2.2-1.8-6.3-1.8h-10.9v14.3h11.1q4.1 0 6.2-1.9 2.2-1.9 2.2-5.1zm42.9-6.9v39.7h-11v-39.7h-15.2v-10.1h41.3v10.1zm59.9 39.7l-4.5-11.2h-21.1l-4.5 11.2h-11.2l21.3-50.2h10.1l21.4 50.2zm-15.1-37l-6.6 16.1h13.2zm74.5 29.3q-1.3 2.6-3.8 4.3-2.4 1.7-5.8 2.6-3.5 0.8-7.7 0.8h-23.6v-49.8h23q7.7 0 12.1 3.5 4.4 3.5 4.4 9.4v0.1q0 2.2-0.6 3.8-0.5 1.6-1.4 3-0.9 1.3-2 2.3-1.2 1-2.6 1.7 4.4 1.6 6.8 4.4 2.5 2.8 2.5 7.8v0.2q0 3.4-1.3 5.9zm-12.3-27.4q0-2.4-1.8-3.8-1.9-1.3-5.4-1.3h-10.8v10.6h10.1q3.7 0 5.8-1.3 2.1-1.2 2.1-4zm2.8 19.9q0-2.5-1.9-3.9-1.9-1.5-6.2-1.5h-12.7v11h13.1q3.6 0 5.6-1.3 2.1-1.4 2.1-4.1zm19.2 15.1v-49.8h11v39.9h24.8v9.9zm43.4 0v-49.8h37.5v9.7h-26.7v10.2h23.5v9.7h-23.5v10.5h27v9.7zm81.7-8.1q-1.4 2.9-3.8 4.8-2.4 2-5.7 3-3.4 1-7.4 1-5.7 0-11.2-1.9-5.5-2-9.9-6l6.4-7.8q3.4 2.8 7 4.4 3.6 1.7 7.9 1.7 3.4 0 5.3-1.3 1.9-1.2 1.9-3.4v-0.2q0-1.1-0.4-1.9-0.4-0.8-1.5-1.5-1.1-0.7-3.1-1.4-1.9-0.7-5.1-1.5-3.7-0.9-6.8-2.1-3.1-1.1-5.2-2.8-2.2-1.7-3.3-4.2-1.2-2.5-1.2-6.2v-0.1q0-3.4 1.3-6.2 1.2-2.7 3.5-4.7 2.3-2 5.5-3 3.2-1.1 7-1.1 5.5 0 10.1 1.6 4.6 1.7 8.4 4.7l-5.6 8.3q-3.4-2.3-6.6-3.6-3.2-1.3-6.4-1.3-3.2 0-4.8 1.2-1.6 1.3-1.6 3.1v0.1q0 1.3 0.5 2.1 0.4 0.9 1.6 1.6 1.2 0.8 3.4 1.4 2.1 0.6 5.3 1.5 3.8 1 6.7 2.2 3 1.3 5 3 2 1.8 3.1 4.1 1 2.4 1 5.6v0.2q0 3.7-1.3 6.6z"/>
			</g>
			<g id="&lt;Group&gt;">
				<path id="&lt;Compound Path&gt;" fill-rule="evenodd" class="s0" d="m173.5 56.1q-2.3 4.7-6.3 7.9-3.9 3.2-9.2 4.8-5.3 1.6-11.4 1.6h-12v21.5h-15.8v-71.9h29.4q6.5 0 11.5 1.8 5.1 1.8 8.7 5.1 3.5 3.3 5.4 7.9 1.9 4.6 1.9 10.1v0.2q0 6.3-2.2 11zm-13.8-10.9q0-5.3-3.4-8.1-3.5-2.8-9.4-2.8h-12.3v22h12.6q5.9 0 9.2-3.1 3.3-3.2 3.3-7.8zm115.4 46.7l-6.5-16.1h-30.4l-6.6 16.1h-16.1l30.8-72.4h14.6l30.8 72.4zm-21.8-53.4l-9.5 23.4h19.1zm138.2 17.5q-2.3 4.7-6.2 7.9-4 3.2-9.3 4.8-5.2 1.6-11.3 1.6h-12v21.6h-15.8v-71.9h29.3q6.5 0 11.6 1.8 5.1 1.8 8.6 5 3.6 3.3 5.5 7.9 1.9 4.6 1.9 10.1v0.2q0 6.3-2.3 11zm-13.8-10.9q0-5.3-3.4-8.1-3.4-2.8-9.4-2.8h-12.2v22h12.5q6 0 9.3-3.1 3.2-3.1 3.2-7.8zm62 46.8v-71.9h54.1v14h-38.5v14.6h33.9v14.1h-33.9v15.1h39v14.1zm103 0v-71.9h15.8v57.6h35.9v14.3zm97.8 0v-71.9h54.1v14h-38.5v14.6h33.9v14.1h-33.9v15.1h39v14.1zm146.7 0l-15.4-23h-12.5v23h-15.8v-71.9h32.9q12.8 0 20 6.2 7.1 6.3 7.1 17.5v0.2q0 8.7-4.2 14.2-4.3 5.5-11.2 8.1l17.6 25.7zm0.3-47.4q0-5.1-3.3-7.7-3.3-2.6-9.1-2.6h-15.8v20.7h16.1q5.8 0 8.9-2.8 3.2-2.8 3.2-7.4zm118 47.4l-6.6-16.2h-30.4l-6.6 16.2h-16.1l30.8-72.4h14.6l30.8 72.4zm-21.7-53.4l-9.6 23.3h19.1z"/>
			</g>
			<path id="&lt;Path&gt;" class="s0" d="m952.7 247.5l182.9-223c0 0 20 7.5 33.7 16.2l-170.5 194.4c0 0 78.7 43.6 67.4 152.2 0 0-3.7-100.4-113.5-139.8z"/>
			<g id="&lt;Group&gt;">
			</g>
			<g id="&lt;Group&gt;">
				<path id="&lt;Path&gt;" class="s0" d="m1848.8 117.1h-417.5-6.2-206l-109.2 258.4c0 0-32.8 83.8-80.5 99.2h395.7 4 226.6 193.1c24.9 0 45-20.1 45-44.9v-267.8c0-24.8-20.1-44.9-45-44.9z"/>
				<path id="&lt;Path&gt;" class="s0" d="m1051.6 393.3c0-66.5-65.6-109.6-151.1-128.1l207.6-243.7h-26.5l-89 95.6h-366-10.3-546.1c-24.8 0-44.9 20.1-44.9 44.9v267.8c0 24.8 20.1 44.9 44.9 44.9h515.2 41.2 333.2c0 0 91.8-15 91.8-81.4z"/>
			</g>
			<path id="&lt;Path&gt;" class="s1" d="m345.8 356.5q0 27.2-13.5 41.8-13.5 14.6-39.1 14.6-25.7 0-39.1-14.6-13.5-14.6-13.5-41.8v-171.3h35.3v173.8q0 11.6 4.6 16.7 4.7 5.1 13.3 5.1 8.7 0 13.3-5.1 4.7-5.1 4.7-16.7v-173.8h34z"/>
			<path id="&lt;Path&gt;" class="s1" d="m467 217.3h-60.9v59.3h48.4v32.1h-48.4v68.9h60.9v32.1h-96.2v-224.5h96.2z"/>
			<path id="&lt;Path&gt;" class="s1" d="m597.8 409.7h-36.2l-42.3-163.9h-0.7v163.9h-31.4v-224.5h44.2l34.4 134.4h0.6v-134.4h31.4z"/>
			<path id="&lt;Path&gt;" class="s1" d="m837.8 398.1q-13.6 14.8-39.6 14.8-25.6 0-38.8-14.6-13.1-14.6-13.1-41.8v-12.9h33.3v15.4q0 21.8 18.3 21.8 9 0 13.6-5.3 4.7-5.3 4.7-17.1 0-14.1-6.4-24.9-6.4-10.7-23.7-25.8-21.9-19.2-30.5-34.8-8.7-15.5-8.7-35.1 0-26.6 13.5-41.2 13.5-14.6 39.1-14.6 25.4 0 38.3 14.6 13 14.6 13 41.8v9.3h-33.3v-11.5q0-11.5-4.5-16.8-4.5-5.3-13.2-5.3-17.6 0-17.6 21.5 0 12.2 6.6 22.7 6.6 10.6 23.9 25.7 22.1 19.2 30.4 34.9 8.4 15.8 8.4 36.9 0 27.6-13.7 42.3z"/>
			<path id="&lt;Compound Path&gt;" fill-rule="evenodd" class="s1" d="m221.4 337.2v19.3q0 25.9-13.7 39.6-13.6 13.6-39.9 13.6h-55.5v-224.5h53.3q27.2 0 39.7 12.7 12.5 12.7 12.5 38.9v9q0 17.3-5.6 28.2-5.6 10.9-17.1 15.8v0.6q26.3 9 26.3 46.8zm-73.8-60.6h13.8q10.6 0 15.9-5.4 5.3-5.5 5.3-18.3v-12.5q0-12.2-4.4-17.7-4.3-5.4-13.6-5.4h-17zm38.5 59.3q0-15.4-5.3-21.3-5.3-5.9-17.5-6h-15.7v69h20.2q9.3 0 13.8-5 4.5-4.9 4.5-17.1z"/>
			<path id="&lt;Compound Path&gt;" fill-rule="evenodd" class="s1" d="m728.7 238.4v118.1q0 26.9-13.8 41.6-13.8 14.8-39.8 14.8-26 0-39.8-14.8-13.7-14.7-13.7-41.6v-118.1q0-26.9 13.7-41.6 13.8-14.8 39.8-14.8 26 0 39.8 14.8 13.8 14.7 13.8 41.6zm-35.3-2.2q0-22.1-18.3-22.1-18.3 0-18.3 22.1v122.5q0 22.1 18.3 22.1 18.3 0 18.3-22.1z"/>
			<path id="&lt;Path&gt;" class="s1" d="m1412.3 314.1v95.6h-35.3v-95.6l-42.6-128.9h37.5l24 82.4h0.7l24-82.4h34.4z"/>
			<path id="&lt;Path&gt;" class="s1" d="m1696.4 217.3h-60.9v59.3h48.4v32.1h-48.4v68.9h60.9v32.1h-96.2v-224.5h96.2z"/>
			<path id="&lt;Path&gt;" class="s1" d="m1802.7 398.1q-13.6 14.8-39.6 14.8-25.6 0-38.8-14.6-13.1-14.6-13.1-41.8v-12.9h33.3v15.4q0 21.8 18.3 21.8 9 0 13.6-5.3 4.7-5.3 4.7-17.1 0-14.1-6.4-24.9-6.5-10.7-23.8-25.8-21.8-19.2-30.4-34.8-8.7-15.5-8.7-35.1 0-26.6 13.5-41.2 13.4-14.6 39.1-14.6 25.3 0 38.3 14.6 13 14.6 13 41.8v9.3h-33.3v-11.5q0-11.5-4.5-16.8-4.5-5.3-13.2-5.3-17.6 0-17.6 21.5 0 12.2 6.6 22.7 6.5 10.6 23.8 25.7 22.2 19.2 30.5 34.9 8.3 15.8 8.3 36.9 0 27.6-13.6 42.3z"/>
			<path id="&lt;Compound Path&gt;" fill-rule="evenodd" class="s1" d="m1579.7 409.7h-35.9q-1.9-5.5-2.6-10.3-0.6-4.8-0.6-17.3v-41q0-15.4-5-21.5-5-6.1-17.2-6.1h-12.1v96.2h-35.3v-224.5h52.3q27.2 0 39.7 12.7 12.5 12.7 12.5 38.9v13.8q0 35-23.1 44.3v0.6q12.9 3.9 18.2 15.7 5.2 11.9 5.2 31.8v39.4q0 9.7 0.7 15.6 0.6 5.9 3.2 11.7zm-39.4-169.3q-0.1-12.2-4.4-17.7-4.3-5.4-13.6-5.4h-16v64.1h12.8q10.6 0 15.9-5.4 5.2-5.5 5.3-18.3z"/>
			<path id="&lt;Compound Path&gt;" fill-rule="evenodd" class="s1" d="m1342.4 409.7h-35.3l-6.4-44.6v0.7h-40.1l-6.4 43.9h-32.7l36.6-224.5h47.7zm-45.8-74.4l-15.7-110.9h-0.7l-15.4 110.9z"/>
		</g>
	</g>
</svg>